HIERARCHY
ROOT Hips
{
    OFFSET 0.000 93.594 0.000
    CHANNELS 6 Xposition Yposition Zposition Yrotation Xrotation Zrotation
    JOINT RightHip
    {
        OFFSET -9.500 -1.594 0.000
        CHANNELS 3 Yrotation Xrotation Zrotation
        JOINT RightKnee
        {
            OFFSET 0.000 -42.000 0.000
            CHANNELS 3 Yrotation Xrotation Zrotation
            JOINT RightAnkle
            {
                OFFSET 0.000 -42.000 0.000
                CHANNELS 3 Yrotation Xrotation Zrotation
                End Site
                {
                    OFFSET 0.000 -8.000 17.500
                }
            }
        }
    }
    JOINT LeftHip
    {
        OFFSET 9.500 -1.594 0.000
        CHANNELS 3 Yrotation Xrotation Zrotation
        JOINT LeftKnee
        {
            OFFSET 0.000 -42.000 0.000
            CHANNELS 3 Yrotation Xrotation Zrotation
            JOINT LeftAnkle
            {
                OFFSET 0.000 -42.000 0.000
                CHANNELS 3 Yrotation Xrotation Zrotation
                End Site
                {
                    OFFSET 0.000 -8.000 17.500
                }
            }
        }
    }
    JOINT Chest
    {
        OFFSET 0.000 14.348 0.000
        CHANNELS 3 Yrotation Xrotation Zrotation
        JOINT Chest2
        {
            OFFSET 0.000 9.746 0.000
            CHANNELS 3 Yrotation Xrotation Zrotation
            JOINT Chest3
            {
                OFFSET 0.000 10.149 0.000
                CHANNELS 3 Yrotation Xrotation Zrotation
                JOINT Chest4
                {
                    OFFSET 0.000 9.746 0.000
                    CHANNELS 3 Yrotation Xrotation Zrotation
                    JOINT Neck
                    {
                        OFFSET 0.000 10.417 0.000
                        CHANNELS 3 Yrotation Xrotation Zrotation
                        JOINT Head
                        {
                            OFFSET 0.000 9.000 0.000
                            CHANNELS 3 Yrotation Xrotation Zrotation
                            End Site
                            {
                                OFFSET 0.000 16.000 0.000
                            }
                        }
                    }
                    JOINT RightCollar
                    {
                        OFFSET -3.200 6.945 0.000
                        CHANNELS 3 Yrotation Xrotation Zrotation
                        JOINT RightShoulder
                        {
                            OFFSET -12.800 0.000 0.000
                            CHANNELS 3 Yrotation Xrotation Zrotation
                            JOINT RightElbow
                            {
OFFSET -0 -27 0.000
						CHANNELS 3 Xrotation Yrotation Zrotation
                                JOINT RightWrist
                                {
OFFSET -0 -26 0.000
						CHANNELS 3 Xrotation Yrotation Zrotation
                                    JOINT RightFinger0
                                    {
OFFSET -0.196 -2.56 3.210
						CHANNELS 3 Xrotation Yrotation Zrotation
                                        JOINT RightFinger01
                                        {
OFFSET -0 -3.788 0.000
						CHANNELS 3 Xrotation Yrotation Zrotation
                                            JOINT RightFinger0Nub
                                            {
OFFSET -0 -2.631 0.000
						CHANNELS 3 Xrotation Yrotation Zrotation
                                                End Site
                                                {
OFFSET 0 -2.256 0
                                                }
                                            }
                                        }
                                    }
                                    JOINT RightFinger1
                                    {
OFFSET -0.523 -3.316 2.035
						CHANNELS 3 Xrotation Yrotation Zrotation
                                        JOINT RightFinger11
                                        {
OFFSET 0.094 -5.366 1.028
						CHANNELS 3 Xrotation Yrotation Zrotation
                                            JOINT RightFinger12
                                            {
OFFSET -0 -3.723 0.000
						CHANNELS 3 Xrotation Yrotation Zrotation
                                                JOINT RightFinger1Nub
                                                {
OFFSET -0 -2.111 0.000
						CHANNELS 3 Xrotation Yrotation Zrotation
                                                    End Site
                                                    {
OFFSET 0 -1.857 0
                                                    }
                                                }
                                            }
                                        }
                                    }
                                    JOINT RightFinger2
                                    {
OFFSET -0.532 -3.479 0.778
						CHANNELS 3 Xrotation Yrotation Zrotation
                                        JOINT RightFinger21
                                        {
OFFSET 0.086 -5.322 0.323
						CHANNELS 3 Xrotation Yrotation Zrotation
                                            JOINT RightFinger22
                                            {
OFFSET -0 -4.062 0.000
						CHANNELS 3 Xrotation Yrotation Zrotation
                                                JOINT RightFinger2Nub
                                                {
OFFSET -0 -2.547 0.000
						CHANNELS 3 Xrotation Yrotation Zrotation
                                                    End Site
                                                    {
OFFSET 0 -2.031 0
                                                    }
                                                }
                                            }
                                        }
                                    }
                                    JOINT RightFinger3
                                    {
OFFSET -0.553 -3.461 -0.133
						CHANNELS 3 Xrotation Yrotation Zrotation
                                        JOINT RightFinger31
                                        {
OFFSET 0.023 -4.767 -0.493
						CHANNELS 3 Xrotation Yrotation Zrotation
                                            JOINT RightFinger32
                                            {
OFFSET -0 -3.541 0.000
						CHANNELS 3 Xrotation Yrotation Zrotation
                                                JOINT RightFinger3Nub
                                                {
OFFSET -0 -2.456 0.000
						CHANNELS 3 Xrotation Yrotation Zrotation
                                                    End Site
                                                    {
OFFSET 0 -1.91 0
                                                    }
                                                }
                                            }
                                        }
                                    }
                                    JOINT RightFinger4
                                    {
OFFSET -0.483 -3.251 -1.236
						CHANNELS 3 Xrotation Yrotation Zrotation
                                        JOINT RightFinger41
                                        {
OFFSET 0.023 -4.259 -1.122
						CHANNELS 3 Xrotation Yrotation Zrotation
                                            JOINT RightFinger42
                                            {
OFFSET -0 -2.835 0.000
						CHANNELS 3 Xrotation Yrotation Zrotation
                                                JOINT RightFinger4Nub
                                                {
OFFSET -0 -1.792 0.000
						CHANNELS 3 Xrotation Yrotation Zrotation
                                                    End Site
                                                    {
OFFSET 0 -1.692 0
                                                    }
                                                }
                                            }
                                        }
                                    }
                                }
                            }
                        }
                    }
                    JOINT LeftCollar
                    {
                        OFFSET 3.200 6.945 0.000
                        CHANNELS 3 Yrotation Xrotation Zrotation
                        JOINT LeftShoulder
                        {
                            OFFSET 12.800 0.000 0.000
                            CHANNELS 3 Yrotation Xrotation Zrotation
                            JOINT LeftElbow
                            {
OFFSET -0 -27 0.000
						CHANNELS 3 Xrotation Yrotation Zrotation
                                JOINT LeftWrist
                                {
OFFSET -0 -26 0.000
						CHANNELS 3 Xrotation Yrotation Zrotation
                                    JOINT LeftFinger0
                                    {
OFFSET -0.196 -2.56 3.210
						CHANNELS 3 Xrotation Yrotation Zrotation
                                        JOINT LeftFinger01
                                        {
OFFSET -0 -3.788 0.000
						CHANNELS 3 Xrotation Yrotation Zrotation
                                            JOINT LeftFinger0Nub
                                            {
OFFSET -0 -2.631 0.000
						CHANNELS 3 Xrotation Yrotation Zrotation
                                                End Site
                                                {
OFFSET 0 -2.256 0
                                                }
                                            }
                                        }
                                    }
                                    JOINT LeftFinger1
                                    {
OFFSET -0.523 -3.316 2.035
						CHANNELS 3 Xrotation Yrotation Zrotation
                                        JOINT LeftFinger11
                                        {
OFFSET 0.094 -5.366 1.028
						CHANNELS 3 Xrotation Yrotation Zrotation
                                            JOINT LeftFinger12
                                            {
OFFSET -0 -3.723 0.000
						CHANNELS 3 Xrotation Yrotation Zrotation
                                                JOINT LeftFinger1Nub
                                                {
OFFSET -0 -2.111 0.000
						CHANNELS 3 Xrotation Yrotation Zrotation
                                                    End Site
                                                    {
OFFSET 0 -1.857 0
                                                    }
                                                }
                                            }
                                        }
                                    }
                                    JOINT LeftFinger2
                                    {
OFFSET -0.532 -3.479 0.778
						CHANNELS 3 Xrotation Yrotation Zrotation
                                        JOINT LeftFinger21
                                        {
OFFSET 0.086 -5.322 0.323
						CHANNELS 3 Xrotation Yrotation Zrotation
                                            JOINT LeftFinger22
                                            {
OFFSET -0 -4.062 0.000
						CHANNELS 3 Xrotation Yrotation Zrotation
                                                JOINT LeftFinger2Nub
                                                {
OFFSET -0 -2.547 0.000
						CHANNELS 3 Xrotation Yrotation Zrotation
                                                    End Site
                                                    {
OFFSET 0 -2.031 0
                                                    }
                                                }
                                            }
                                        }
                                    }
                                    JOINT LeftFinger3
                                    {
OFFSET -0.553 -3.461 -0.133
						CHANNELS 3 Xrotation Yrotation Zrotation
                                        JOINT LeftFinger31
                                        {
OFFSET 0.023 -4.767 -0.493
						CHANNELS 3 Xrotation Yrotation Zrotation
                                            JOINT LeftFinger32
                                            {
OFFSET -0 -3.541 0.000
						CHANNELS 3 Xrotation Yrotation Zrotation
                                                JOINT LeftFinger3Nub
                                                {
OFFSET -0 -2.456 0.000
						CHANNELS 3 Xrotation Yrotation Zrotation
                                                    End Site
                                                    {
OFFSET 0 -1.91 0
                                                    }
                                                }
                                            }
                                        }
                                    }
                                    JOINT LeftFinger4
                                    {
OFFSET -0.483 -3.251 -1.236
						CHANNELS 3 Xrotation Yrotation Zrotation
                                        JOINT LeftFinger41
                                        {
OFFSET 0.023 -4.259 -1.122
						CHANNELS 3 Xrotation Yrotation Zrotation
                                            JOINT LeftFinger42
                                            {
OFFSET -0 -2.835 0.000
						CHANNELS 3 Xrotation Yrotation Zrotation
                                                JOINT LeftFinger4Nub
                                                {
OFFSET -0 -1.792 0.000
						CHANNELS 3 Xrotation Yrotation Zrotation
                                                    End Site
                                                    {
OFFSET 0 -1.692 0
                                                    }
                                                }
                                            }
                                        }
                                    }
                                }
                            }
                        }
                    }
                }
            }
        }
    }
}
MOTION

Frames: 7
Frame Time: 0.017
-244.02 92.47 169.49 128.10 2.72 0.05 -1.60 -15.03 -6.77 -0.00 26.78 -0.00 -38.84 -8.38 10.57 -25.48 -15.53 7.77 0.00 26.41 0.00 28.39 -10.03 -11.70 -9.54 -2.08 -0.86 -2.39 -0.45 -0.25 -3.94 -0.71 -0.40 -1.21 3.93 0.36 5.69 58.90 13.46 -17.57 25.13 8.87 10.91 0.41 -4.63 -2.86 -14.28 -3.19 -11.99 37.91 6.04 -3.03 6.58 10.89 -42.71 -0 32.16 25.12 -0 2.34 17.73 -0 0.00 0 -0 0.00 -15 -0 14.11 0 -0 4.92 0 -0 2.46 0 -0 0.00 0 -0 17.87 0 -0 17.87 0 -0 17.87 0 -0 0.00 15 -0 22.72 0 -0 22.72 0 -0 22.72 0 -0 0.00 25 -0 26.99 0 -0 26.99 0 -0 26.99 -6.44 -4.84 -3.85 23.88 -5.50 17.75 -22.05 -31.67 -15.07 -13.33 16.57 3.13 -8.83 0 -37.06 -7.61 0 7.15 9.53 0 0.00 0.00 0 0.00 -15.00 0 -18.29 0.00 0 -15.07 0.00 0 -7.54 0.00 0 0.00 0.00 0 -14.94 0.00 0 -14.94 0.00 0 -14.94 0.00 0 0.00 15.00 0 -18.63 0.00 0 -18.63 0.00 0 -18.63 0.00 0 0.00 25.00 0 -20.93 0.00 0 -20.93 0.00 0 -20.93 
-244.03 92.38 169.51 128.23 2.70 0.09 -1.77 -15.31 -6.82 0.00 27.36 -0.00 -38.79 -8.62 10.75 -25.57 -15.79 7.76 -0.00 26.89 0.00 28.37 -10.23 -11.82 -9.56 -2.15 -0.84 -2.39 -0.46 -0.25 -3.95 -0.73 -0.40 -1.21 3.93 0.36 5.73 59.00 13.54 -17.69 25.13 8.88 10.86 0.38 -4.58 -2.40 -14.36 -2.78 -11.18 37.61 5.13 -2.39 5.97 10.95 -42.78 -0 31.95 24.99 -0 2.13 17.64 -0 0.00 0 -0 0.00 -15 -0 14.09 0 -0 4.87 0 -0 2.43 0 -0 0.00 0 -0 18.01 0 -0 18.01 0 -0 18.01 0 -0 0.00 15 -0 22.78 0 -0 22.78 0 -0 22.78 0 -0 0.00 25 -0 27.07 0 -0 27.07 0 -0 27.07 -6.52 -4.74 -3.93 24.41 -5.68 17.85 -22.14 -31.06 -15.57 -13.42 16.78 3.39 -8.82 0 -36.86 -7.60 0 7.36 9.59 0 0.00 0.00 0 0.00 -15.00 0 -18.20 0.00 0 -15.12 0.00 0 -7.56 0.00 0 0.00 0.00 0 -15.08 0.00 0 -15.08 0.00 0 -15.08 0.00 0 0.00 15.00 0 -18.64 0.00 0 -18.64 0.00 0 -18.64 0.00 0 0.00 25.00 0 -21.05 0.00 0 -21.05 0.00 0 -21.05 
-243.94 92.29 169.93 128.23 2.70 0.09 -1.99 -15.76 -6.57 0.00 28.00 -0.00 -38.63 -8.96 10.65 -25.89 -15.82 8.07 0.00 27.01 0.00 28.59 -10.11 -12.14 -9.56 -2.15 -0.84 -2.39 -0.46 -0.25 -3.95 -0.73 -0.40 -1.21 3.93 0.36 5.73 59.00 13.54 -17.69 25.13 8.88 11.10 -1.81 -5.07 -2.54 -12.15 -2.37 -46 58.62 38.41 -4.29 6.32 13.30 -38.2 -0 30.48 34.14 -0 0.65 6.59 -0 0.00 0 -0 0.00 -15 -0 14.90 0 -0 2.11 0 -0 1.05 0 -0 0.00 0 -0 18.29 0 -0 18.29 0 -0 18.29 0 -0 0.00 15 -0 22.03 0 -0 22.03 0 -0 22.03 0 -0 0.00 25 -0 27.36 0 -0 27.36 0 -0 27.36 -7.14 -3.51 -2.38 -2.35 -1.58 46.38 -42.71 -67.76 -31.21 -6.58 14.53 -6.60 -10.34 0 -41.93 -10.64 0 2.29 -1.49 0 0.00 0.00 0 0.00 -15.00 0 -22.15 0.00 0 -13.39 0.00 0 -6.70 0.00 0 0.00 0.00 0 -20.65 0.00 0 -20.65 0.00 0 -20.65 0.00 0 0.00 15.00 0 -22.89 0.00 0 -22.89 0.00 0 -22.89 0.00 0 0.00 25.00 0 25.66 0.00 0 25.66 0.00 0 25.66 
-243.88 92.24 170.27 128.23 2.70 0.09 -2.17 -16.14 -6.36 0.00 28.52 0.00 -38.50 -9.24 10.57 -26.16 -15.86 8.32 -0.00 27.13 -0.00 28.78 -10.02 -12.40 -9.56 -2.15 -0.84 -2.39 -0.46 -0.25 -3.95 -0.73 -0.40 -1.21 3.93 0.36 5.73 59.00 13.54 -17.69 25.13 8.88 11.18 -1.79 -5.13 -2.64 -12.16 -2.31 -46.93 59.98 39.00 -4.27 6.48 13.67 -38.28 -0 29.84 33.99 -0 0.02 5.33 -0 0.00 0 -0 0.00 -15 -0 14.85 0 -0 1.75 0 -0 0.87 0 -0 0.00 0 -0 18.04 0 -0 18.04 0 -0 18.04 0 -0 0.00 15 -0 22.21 0 -0 22.21 0 -0 22.21 0 -0 0.00 25 -0 27.63 0 -0 27.63 0 -0 27.63 -7.06 -3.69 -2.29 -1.63 -2.43 46.45 -38.66 -67.66 -27.43 -5.09 13.68 -7.09 -10.41 0 -42.11 -10.77 0 2.11 -1.75 0 0.00 0.00 0 0.00 -15.00 0 -23.49 0.00 0 -12.43 0.00 0 -6.21 0.00 0 0.00 0.00 0 -20.89 0.00 0 -20.89 0.00 0 -20.89 0.00 0 0.00 15.00 0 -22.80 0.00 0 -22.80 0.00 0 -22.80 0.00 0 0.00 25.00 0 24.29 0.00 0 24.29 0.00 0 24.29 
-243.91 92.15 170.57 128.17 2.98 -1.30 0.61 -15.92 -4.82 0.00 27.85 -0.00 -40.93 -8.70 10.66 -25.72 -16.57 10.00 -0.00 28.75 -0.00 27.76 -10.18 -12.44 -9.86 -2.07 -0.05 -2.47 -0.43 -0.05 -4.08 -0.66 -0.07 -1.19 3.91 0.36 5.54 58.75 13.19 -17.42 25.26 8.61 11.77 -1.90 -5.14 8.86 -10.88 -27.34 -52.66 36.48 48.03 -4.19 6.73 14.11 -38.73 -0 29.51 33.08 -0 -0.31 4.77 -0 0.00 0 -0 0.00 -15 -0 14.78 0 -0 1.36 0 -0 0.68 0 -0 0.00 0 -0 17.76 0 -0 17.76 0 -0 17.76 0 -0 0.00 15 -0 24.52 0 -0 24.52 0 -0 24.52 0 -0 0.00 25 -0 28.19 0 -0 28.19 0 -0 28.19 -6.46 -3.99 -2.14 -0.60 -3.65 46.41 -41.54 -68.98 -30.68 -2.16 15.72 -6.66 -10.44 0 -42.21 -10.85 0 2.01 -1.80 0 0.00 0.00 0 0.00 -15.00 0 -25.20 0.00 0 -11.39 0.00 0 -5.70 0.00 0 0.00 0.00 0 -21.19 0.00 0 -21.19 0.00 0 -21.19 0.00 0 0.00 15.00 0 -22.72 0.00 0 -22.72 0.00 0 -22.72 0.00 0 0.00 25.00 0 -19.67 0.00 0 -19.67 0.00 0 -19.67 
-243.94 92.12 170.82 128.50 3.04 -1.27 0.38 -16.24 -4.72 0.00 28.21 0.00 -41.06 -8.82 10.66 -25.97 -16.69 10.20 -0.00 28.67 0.00 27.59 -10.00 -12.50 -9.94 -2.10 -0.08 -2.49 -0.44 -0.06 -4.11 -0.67 -0.08 -1.20 3.91 0.36 5.60 58.81 13.32 -17.42 25.20 8.76 11.71 -1.86 -5.18 8.94 -11.07 -27.6 -52.97 37.48 48.02 -4.11 6.95 14.64 -39.2 -0 29.15 32.13 -0 -0.67 4.33 -0 0.00 0 -0 0.00 -15 -0 14.71 0 -0 0.95 0 -0 0.47 0 -0 0.00 0 -0 17.45 0 -0 17.45 0 -0 17.45 0 -0 0.00 15 -0 24.50 0 -0 24.50 0 -0 24.50 0 -0 0.00 25 -0 28.69 0 -0 28.69 0 -0 28.69 -6.50 -4.15 -2.07 0.67 -5.17 46.18 -45.29 -70.64 -34.82 0.63 18.89 -6.14 -10.45 0 -42.24 -10.86 0 1.98 -1.65 0 0.00 0.00 0 0.00 -15.00 0 -27.05 0.00 0 -10.33 0.00 0 -5.16 0.00 0 0.00 0.00 0 -21.55 0.00 0 -21.55 0.00 0 -21.55 0.00 0 0.00 15.00 0 -22.64 0.00 0 -22.64 0.00 0 -22.64 0.00 0 0.00 25.00 0 -19.86 0.00 0 -19.86 0.00 0 -19.86 
-243.95 92.11 171.05 128.80 3.08 -1.24 0.14 -16.47 -4.62 0.00 28.49 -0.00 -41.22 -8.90 10.64 -26.19 -16.78 10.38 -0.00 28.61 -0.00 27.45 -9.86 -12.58 -9.98 -2.12 -0.12 -2.50 -0.44 -0.07 -4.13 -0.68 -0.10 -1.21 3.92 0.37 5.69 58.90 13.48 -17.43 25.12 8.95 11.60 -1.82 -5.23 8.89 -11.53 -27.39 -52.73 39.04 47.62 -5.09 5.89 15.06 -38.13 -0 27.88 34.29 -0 -1.94 1.32 -0 0.00 0 -0 0.00 -15 -0 14.54 0 -0 0.52 0 -0 0.26 0 -0 0.00 0 -0 17.31 0 -0 17.31 0 -0 17.31 0 -0 0.00 15 -0 23.95 0 -0 23.95 0 -0 23.95 0 -0 0.00 25 -0 28.42 0 -0 28.42 0 -0 28.42 -6.60 -4.25 -1.98 2.17 -7.00 45.68 -39.80 -70.87 -29.69 1.59 20.06 -6.09 -10.50 0 -44.12 -10.96 0 0.10 0.38 0 0.00 0.00 0 0.00 -15.00 0 -29.02 0.00 0 -9.23 0.00 0 -4.61 0.00 0 0.00 0.00 0 -21.95 0.00 0 -21.95 0.00 0 -21.95 0.00 0 0.00 15.00 0 -22.60 0.00 0 -22.60 0.00 0 -22.60 0.00 0 0.00 25.00 0 -19.37 0.00 0 -19.37 0.00 0 -19.37 
